<?xml version="1.0" encoding="utf-8"?>
<!-- Generator: Adobe Illustrator 23.0.1, SVG Export Plug-In . SVG Version: 6.00 Build 0)  -->
<svg version="1.1" id="Layer_1" xmlns="http://www.w3.org/2000/svg" xmlns:xlink="http://www.w3.org/1999/xlink" x="0px" y="0px"
	 viewBox="0 0 650 210" style="enable-background:new 0 0 650 210;" xml:space="preserve">
<style type="text/css">
	.st0{fill-rule:evenodd;clip-rule:evenodd;fill:#FFFFFF;}
	.st1{filter:url(#filter-2);}
</style>
<filter  filterUnits="objectBoundingBox" height="124.9%" id="filter-2" width="103.1%" x="-1.5%" y="-9.7%">
	<feMorphology  in="SourceAlpha" operator="dilate" radius="0.5" result="shadowSpreadOuter1"></feMorphology>
	<feOffset  dx="0" dy="2" in="shadowSpreadOuter1" result="shadowOffsetOuter1"></feOffset>
	<feGaussianBlur  in="shadowOffsetOuter1" result="shadowBlurOuter1" stdDeviation="2.5"></feGaussianBlur>
	<feComposite  in="shadowBlurOuter1" in2="SourceAlpha" operator="out" result="shadowBlurOuter1"></feComposite>
	<feColorMatrix  in="shadowBlurOuter1" type="matrix" values="0 0 0 0 0   0 0 0 0 0   0 0 0 0 0  0 0 0 0.5 0"></feColorMatrix>
</filter>
<title>Artboard</title>
<desc>Created with Sketch.</desc>
<g>
	<g>
		<path class="st0" d="M50.8,159.6h2.1c5.5,0,10.2-2.4,10.2-8.5c0-5.3-2.8-8.4-11.7-8.4h-4.2v29.1h3.6V159.6z M50.8,146h1
			c3.6,0,7.9,0.5,7.9,5.1c0,4.6-4,5.3-7.7,5.3h-1.2V146z"/>
		<path class="st0" d="M112,142.1c-8.3,0-15.2,6.8-15.2,15.2c0,8.6,6.8,15.2,15.2,15.2c8.4,0,15.2-6.5,15.2-15.2
			C127.2,149,120.3,142.1,112,142.1z M112,169.1c-6.3,0-11.6-5.1-11.6-11.8c0-6.4,4.8-11.8,11.6-11.8c6.8,0,11.6,5.4,11.6,11.8
			C123.6,163.9,118.3,169.1,112,169.1z"/>
		<polygon class="st0" points="166.9,142.7 163.3,142.7 163.3,171.8 175.7,171.8 175.7,168.5 166.9,168.5 		"/>
		<polygon class="st0" points="215.6,159.2 215.6,171.8 219.2,171.8 219.2,159.2 228.7,142.7 224.6,142.7 217.4,155.2 210.3,142.7 
			206.1,142.7 		"/>
		<polygon class="st0" points="271.6,146.1 278.5,146.1 278.5,142.7 261.1,142.7 261.1,146.1 268,146.1 268,171.8 271.6,171.8 		"/>
		<polygon class="st0" points="313.9,171.8 329.5,171.8 329.5,168.5 317.5,168.5 317.5,157.5 329.2,157.5 329.2,154.2 317.5,154.2 
			317.5,146.1 329.5,146.1 329.5,142.7 313.9,142.7 		"/>
		<path class="st0" d="M387.7,144.1c-2.2-1.4-4.8-2-7.3-2c-8.6,0-15.5,6.7-15.5,15.3c0,8.4,6.9,15,15.2,15c2.5,0,5.4-0.7,7.6-2v-4.3
			c-2.2,1.9-4.9,3-7.8,3c-6.5,0-11.4-5.4-11.4-11.8c0-6.4,5-11.9,11.5-11.9c2.7,0,5.6,1,7.7,2.9V144.1z"/>
		<polygon class="st0" points="427.9,154.5 427.9,142.7 424.3,142.7 424.3,171.8 427.9,171.8 427.9,157.9 441.8,157.9 441.8,171.8 
			445.4,171.8 445.4,142.7 441.8,142.7 441.8,154.5 		"/>
		<polygon class="st0" points="482.8,171.8 486.5,171.8 486.5,150.2 508.3,173 508.3,142.7 504.7,142.7 504.7,164.2 482.8,141.4 		
			"/>
		<rect x="545.9" y="142.7" class="st0" width="3.6" height="29.1"/>
		<path class="st0" d="M608.7,144.1c-2.2-1.4-4.8-2-7.3-2c-8.6,0-15.5,6.7-15.5,15.3c0,8.4,6.9,15,15.2,15c2.5,0,5.4-0.7,7.6-2v-4.3
			c-2.2,1.9-4.9,3-7.8,3c-6.5,0-11.4-5.4-11.4-11.8c0-6.4,5-11.9,11.5-11.9c2.7,0,5.6,1,7.7,2.9V144.1z"/>
	</g>
	<rect x="47.1" y="128.7" class="st0" width="561.6" height="2.5"/>
	<g>
		<path class="st0" d="M198.9,39c-6.2-1.3-12.4-2-18.7-2c-28.8,0-49.2,16-49.2,41.6c0,23.9,18,40.6,48.5,40.6
			c9.4,0,18.6-1.7,27.9-3.5c0,0,0-3.7,0-5.5V82.8c0-1.8,0-5.5,0-5.5h-17.6v0.4c5.4,2.1,5.5,8,5.5,13.5v17.2
			c-5.4,1.5-11.1,2.3-16.6,2.3c-18.8,0-34.1-14.5-34.1-33.7c0-19.2,14.2-31.3,32.8-31.3c7.3,0,16.3,1.7,21.2,7.1h0.4V39z"/>
		<path class="st0" d="M230.7,79l19.8,0.1v-8.6l-19.8,0v-23c0.1,0,26.6-0.1,26.6-0.1v-8.5c0,0-3.9,0-6,0h-32.7v78.4h41.5l4.5-11.9
			h-0.4c-4.2,3.5-16.4,3.3-18.4,3.3c-0.8,0-15.1,0-15.1,0V79z"/>
		<path class="st0" d="M58.8,55.7l40.9,51.8c5.2,6.8,10.9,11.9,20.2,13.6l0-82.2h-11.4v60.5l-43.6-55l-4.3-5.5H41.2v0.4
			c6.2,3.6,6.2,8.3,6.2,15l0,63h11.4L58.8,55.7z"/>
		<path class="st0" d="M287.9,79l19.8,0.1v-8.6l-19.8,0v-23c0.1,0,26.6-0.1,26.6-0.1v-8.5l-38.7,0v78.4h41.5l4.5-11.9h-0.4
			c-4.2,3.5-16.4,3.3-18.4,3.3c-0.8,0-15.1,0-15.1,0V79z"/>
		<path class="st0" d="M407.6,87.8l11.3,29.4h17.9v-0.4c-6.8-3.5-8.9-10.1-11.7-16.9l-24.8-61.1h-12.8l-30.8,78.4h9.8l11.1-29.4
			H407.6z M404.1,79h-23.5l11.8-30L404.1,79z"/>
		<path class="st0" d="M457.9,55.7l40.9,51.8c5.2,6.8,10.9,11.9,20.2,13.6l0-82.2h-11.4v60.5l-43.6-55l-4.3-5.5h-19.4v0.4
			c6.2,3.6,6.2,8.3,6.2,15v63h11.4V55.7z"/>
		<path class="st0" d="M547.7,55.7l40.9,51.8c5.2,6.8,10.9,11.9,20.2,13.6V38.9h-11.4v60.5l-43.6-55l-4.3-5.5h-19.4v0.4
			c6.2,3.6,6.2,8.3,6.2,15l0,63h11.4V55.7z"/>
	</g>
</g>
<g class="st1">
	<g>
		<path class="st0" d="M50.8,159.6h2.1c5.5,0,10.2-2.4,10.2-8.5c0-5.3-2.8-8.4-11.7-8.4h-4.2v29.1h3.6V159.6z M50.8,146h1
			c3.6,0,7.9,0.5,7.9,5.1c0,4.6-4,5.3-7.7,5.3h-1.2V146z"/>
		<path class="st0" d="M112,142.1c-8.3,0-15.2,6.8-15.2,15.2c0,8.6,6.8,15.2,15.2,15.2c8.4,0,15.2-6.5,15.2-15.2
			C127.2,149,120.3,142.1,112,142.1z M112,169.1c-6.3,0-11.6-5.1-11.6-11.8c0-6.4,4.8-11.8,11.6-11.8c6.8,0,11.6,5.4,11.6,11.8
			C123.6,163.9,118.3,169.1,112,169.1z"/>
		<polygon class="st0" points="166.9,142.7 163.3,142.7 163.3,171.8 175.7,171.8 175.7,168.5 166.9,168.5 		"/>
		<polygon class="st0" points="215.6,159.2 215.6,171.8 219.2,171.8 219.2,159.2 228.7,142.7 224.6,142.7 217.4,155.2 210.3,142.7 
			206.1,142.7 		"/>
		<polygon class="st0" points="271.6,146.1 278.5,146.1 278.5,142.7 261.1,142.7 261.1,146.1 268,146.1 268,171.8 271.6,171.8 		"/>
		<polygon class="st0" points="313.9,171.8 329.5,171.8 329.5,168.5 317.5,168.5 317.5,157.5 329.2,157.5 329.2,154.2 317.5,154.2 
			317.5,146.1 329.5,146.1 329.5,142.7 313.9,142.7 		"/>
		<path class="st0" d="M387.7,144.1c-2.2-1.4-4.8-2-7.3-2c-8.6,0-15.5,6.7-15.5,15.3c0,8.4,6.9,15,15.2,15c2.5,0,5.4-0.7,7.6-2v-4.3
			c-2.2,1.9-4.9,3-7.8,3c-6.5,0-11.4-5.4-11.4-11.8c0-6.4,5-11.9,11.5-11.9c2.7,0,5.6,1,7.7,2.9V144.1z"/>
		<polygon class="st0" points="427.9,154.5 427.9,142.7 424.3,142.7 424.3,171.8 427.9,171.8 427.9,157.9 441.8,157.9 441.8,171.8 
			445.4,171.8 445.4,142.7 441.8,142.7 441.8,154.5 		"/>
		<polygon class="st0" points="482.8,171.8 486.5,171.8 486.5,150.2 508.3,173 508.3,142.7 504.7,142.7 504.7,164.2 482.8,141.4 		
			"/>
		<rect x="545.9" y="142.7" class="st0" width="3.6" height="29.1"/>
		<path class="st0" d="M608.7,144.1c-2.2-1.4-4.8-2-7.3-2c-8.6,0-15.5,6.7-15.5,15.3c0,8.4,6.9,15,15.2,15c2.5,0,5.4-0.7,7.6-2v-4.3
			c-2.2,1.9-4.9,3-7.8,3c-6.5,0-11.4-5.4-11.4-11.8c0-6.4,5-11.9,11.5-11.9c2.7,0,5.6,1,7.7,2.9V144.1z"/>
	</g>
	<rect x="47.1" y="128.7" class="st0" width="561.6" height="2.5"/>
	<g>
		<path class="st0" d="M198.9,39c-6.2-1.3-12.4-2-18.7-2c-28.8,0-49.2,16-49.2,41.6c0,23.9,18,40.6,48.5,40.6
			c9.4,0,18.6-1.7,27.9-3.5c0,0,0-3.7,0-5.5V82.8c0-1.8,0-5.5,0-5.5h-17.6v0.4c5.4,2.1,5.5,8,5.5,13.5v17.2
			c-5.4,1.5-11.1,2.3-16.6,2.3c-18.8,0-34.1-14.5-34.1-33.7c0-19.2,14.2-31.3,32.8-31.3c7.3,0,16.3,1.7,21.2,7.1h0.4V39z"/>
		<path class="st0" d="M230.7,79l19.8,0.1v-8.6l-19.8,0v-23c0.1,0,26.6-0.1,26.6-0.1v-8.5c0,0-3.9,0-6,0h-32.7v78.4h41.5l4.5-11.9
			h-0.4c-4.2,3.5-16.4,3.3-18.4,3.3c-0.8,0-15.1,0-15.1,0V79z"/>
		<path class="st0" d="M58.8,55.7l40.9,51.8c5.2,6.8,10.9,11.9,20.2,13.6l0-82.2h-11.4v60.5l-43.6-55l-4.3-5.5H41.2v0.4
			c6.2,3.6,6.2,8.3,6.2,15l0,63h11.4L58.8,55.7z"/>
		<path class="st0" d="M287.9,79l19.8,0.1v-8.6l-19.8,0v-23c0.1,0,26.6-0.1,26.6-0.1v-8.5l-38.7,0v78.4h41.5l4.5-11.9h-0.4
			c-4.2,3.5-16.4,3.3-18.4,3.3c-0.8,0-15.1,0-15.1,0V79z"/>
		<path class="st0" d="M407.6,87.8l11.3,29.4h17.9v-0.4c-6.8-3.5-8.9-10.1-11.7-16.9l-24.8-61.1h-12.8l-30.8,78.4h9.8l11.1-29.4
			H407.6z M404.1,79h-23.5l11.8-30L404.1,79z"/>
		<path class="st0" d="M457.9,55.7l40.9,51.8c5.2,6.8,10.9,11.9,20.2,13.6l0-82.2h-11.4v60.5l-43.6-55l-4.3-5.5h-19.4v0.4
			c6.2,3.6,6.2,8.3,6.2,15v63h11.4V55.7z"/>
		<path class="st0" d="M547.7,55.7l40.9,51.8c5.2,6.8,10.9,11.9,20.2,13.6V38.9h-11.4v60.5l-43.6-55l-4.3-5.5h-19.4v0.4
			c6.2,3.6,6.2,8.3,6.2,15l0,63h11.4V55.7z"/>
	</g>
</g>
</svg>
