<?xml version="1.0" encoding="utf-8"?>
<!-- Generator: Adobe Illustrator 26.0.2, SVG Export Plug-In . SVG Version: 6.00 Build 0)  -->
<svg version="1.1" id="Layer_1" xmlns="http://www.w3.org/2000/svg" xmlns:xlink="http://www.w3.org/1999/xlink" x="0px" y="0px"
	 width="773.1px" height="98.5px" viewBox="0 0 773.1 98.5" style="enable-background:new 0 0 773.1 98.5;" xml:space="preserve">
<style type="text/css">
	.st0{fill:#E30613;}
	.st1{fill:#164194;}
	.st2{fill:none;}
</style>
<g>
	<g>
		<g>
			<path class="st0" d="M639.7,77l7.2-6.4c0.8-0.7,1.4-1.3,1.9-1.8c0.5-0.5,1-1.1,1.3-1.5c0.3-0.5,0.6-1,0.7-1.4
				c0.2-0.5,0.2-0.9,0.2-1.4c0-0.6-0.1-1.1-0.3-1.6c-0.2-0.5-0.5-0.9-0.9-1.2c-0.4-0.3-0.8-0.6-1.3-0.8c-0.5-0.2-1-0.3-1.5-0.3
				c-1.1,0-2.1,0.3-2.9,0.9c-0.8,0.6-1.6,1.4-2.4,2.5l-1.6-1.2c0.5-0.7,0.9-1.3,1.4-1.8c0.5-0.5,1-1,1.5-1.3
				c0.6-0.4,1.2-0.6,1.9-0.8c0.7-0.2,1.5-0.3,2.3-0.3c0.9,0,1.7,0.1,2.5,0.4c0.8,0.3,1.4,0.7,2,1.2c0.5,0.5,1,1.1,1.3,1.8
				c0.3,0.7,0.5,1.4,0.5,2.2v0.1c0,0.7-0.1,1.4-0.3,2c-0.2,0.6-0.5,1.2-0.9,1.8c-0.4,0.6-0.9,1.2-1.6,1.8c-0.6,0.6-1.4,1.3-2.3,2.1
				l-5.3,4.7h10.5v2h-13.9V77z"/>
			<path class="st0" d="M686.9,79.1c-1.3,0-2.4-0.3-3.5-0.8c-1-0.5-1.9-1.3-2.6-2.2c-0.7-0.9-1.3-2-1.7-3.2
				c-0.4-1.2-0.6-2.5-0.6-3.9v-0.1c0-1.4,0.2-2.7,0.6-3.9c0.4-1.2,1-2.3,1.7-3.3c0.7-0.9,1.6-1.7,2.7-2.2c1-0.5,2.2-0.8,3.5-0.8
				c1.3,0,2.4,0.3,3.4,0.8c1,0.5,1.9,1.3,2.6,2.2c0.7,0.9,1.3,2,1.7,3.3c0.4,1.2,0.6,2.5,0.6,3.9v0.1c0,1.4-0.2,2.7-0.6,4
				c-0.4,1.2-1,2.3-1.7,3.3c-0.7,0.9-1.6,1.7-2.7,2.2C689.3,78.8,688.2,79.1,686.9,79.1z M687,77.1c0.9,0,1.8-0.2,2.5-0.7
				c0.7-0.4,1.4-1,1.9-1.8c0.5-0.7,0.9-1.6,1.2-2.6c0.3-1,0.4-2,0.4-3.1v-0.1c0-1.1-0.1-2.1-0.4-3.1c-0.3-1-0.7-1.9-1.2-2.6
				s-1.2-1.4-1.9-1.8c-0.7-0.5-1.6-0.7-2.5-0.7c-0.9,0-1.8,0.2-2.5,0.7c-0.7,0.4-1.4,1-1.9,1.8c-0.5,0.7-0.9,1.6-1.2,2.6
				c-0.3,1-0.4,2-0.4,3.1v0.1c0,1.1,0.1,2.1,0.4,3.1s0.7,1.9,1.2,2.6s1.2,1.4,1.9,1.8C685.2,76.9,686.1,77.1,687,77.1z"/>
			<path class="st0" d="M720.3,77l7.2-6.4c0.8-0.7,1.4-1.3,1.9-1.8c0.5-0.5,1-1.1,1.3-1.5c0.3-0.5,0.6-1,0.7-1.4
				c0.2-0.5,0.2-0.9,0.2-1.4c0-0.6-0.1-1.1-0.3-1.6c-0.2-0.5-0.5-0.9-0.9-1.2c-0.4-0.3-0.8-0.6-1.3-0.8c-0.5-0.2-1-0.3-1.5-0.3
				c-1.1,0-2.1,0.3-2.9,0.9c-0.8,0.6-1.6,1.4-2.4,2.5l-1.6-1.2c0.5-0.7,0.9-1.3,1.4-1.8c0.5-0.5,1-1,1.5-1.3
				c0.6-0.4,1.2-0.6,1.9-0.8c0.7-0.2,1.5-0.3,2.3-0.3c0.9,0,1.7,0.1,2.5,0.4c0.8,0.3,1.4,0.7,2,1.2c0.5,0.5,1,1.1,1.3,1.8
				c0.3,0.7,0.5,1.4,0.5,2.2v0.1c0,0.7-0.1,1.4-0.3,2c-0.2,0.6-0.5,1.2-0.9,1.8c-0.4,0.6-0.9,1.2-1.6,1.8c-0.6,0.6-1.4,1.3-2.3,2.1
				l-5.3,4.7h10.5v2h-13.9V77z"/>
			<path class="st0" d="M759.2,77l7.2-6.4c0.8-0.7,1.4-1.3,1.9-1.8c0.5-0.5,1-1.1,1.3-1.5c0.3-0.5,0.6-1,0.7-1.4
				c0.2-0.5,0.2-0.9,0.2-1.4c0-0.6-0.1-1.1-0.3-1.6c-0.2-0.5-0.5-0.9-0.9-1.2c-0.4-0.3-0.8-0.6-1.3-0.8c-0.5-0.2-1-0.3-1.5-0.3
				c-1.1,0-2.1,0.3-2.9,0.9c-0.8,0.6-1.6,1.4-2.4,2.5l-1.6-1.2c0.5-0.7,0.9-1.3,1.4-1.8c0.5-0.5,1-1,1.5-1.3
				c0.6-0.4,1.2-0.6,1.9-0.8c0.7-0.2,1.5-0.3,2.3-0.3c0.9,0,1.7,0.1,2.5,0.4c0.8,0.3,1.4,0.7,2,1.2c0.5,0.5,1,1.1,1.3,1.8
				c0.3,0.7,0.5,1.4,0.5,2.2v0.1c0,0.7-0.1,1.4-0.3,2c-0.2,0.6-0.5,1.2-0.9,1.8c-0.4,0.6-0.9,1.2-1.6,1.8c-0.6,0.6-1.4,1.3-2.3,2.1
				l-5.3,4.7h10.5v2h-13.9V77z"/>
		</g>
		<g>
			<path class="st1" d="M635.3,15.3h28.3v8.3h-18.7v5.3h16.9v7.7h-16.9v5.6h18.9v8.3h-28.5V15.3z"/>
			<path class="st1" d="M681,15h9.4l15,35.5H695l-2.6-6.3h-13.6l-2.5,6.3H666L681,15z M689.6,36.7l-3.9-10l-4,10H689.6z"/>
			<path class="st1" d="M708.8,15.3h16.6c2.7,0,5,0.3,6.9,1c1.9,0.7,3.4,1.6,4.6,2.8c2.1,2,3.1,4.7,3.1,8.2v0.1c0,2.7-0.7,5-2,6.7
				c-1.3,1.8-3.1,3.1-5.3,4.1l8.4,12.3H730l-7.1-10.7h-0.1h-4.2v10.7h-9.8V15.3z M725,32.2c1.7,0,3-0.4,3.9-1.1
				c0.9-0.8,1.4-1.8,1.4-3v-0.1c0-1.4-0.5-2.5-1.4-3.1c-0.9-0.7-2.2-1-3.9-1h-6.4v8.5H725z"/>
			<path class="st1" d="M758.8,51.1c-3.2,0-6.1-0.5-9-1.5c-2.8-1-5.3-2.4-7.5-4.4l5.4-6.5c3.5,2.8,7.3,4.2,11.4,4.2
				c1.3,0,2.3-0.2,3-0.6c0.7-0.4,1-1,1-1.8v-0.1c0-0.4-0.1-0.7-0.3-1c-0.2-0.3-0.5-0.6-0.9-0.8c-0.5-0.3-1.1-0.5-1.8-0.8
				c-0.8-0.3-1.7-0.5-2.9-0.8c-1.9-0.4-3.6-0.9-5.2-1.4c-1.6-0.5-3-1.2-4.2-2c-1.2-0.8-2.1-1.8-2.8-3.1c-0.7-1.2-1-2.7-1-4.5v-0.1
				c0-1.6,0.3-3.1,0.9-4.5c0.6-1.4,1.5-2.6,2.7-3.6c1.2-1,2.6-1.8,4.3-2.3c1.7-0.6,3.6-0.8,5.7-0.8c3,0,5.7,0.4,8.1,1.2
				c2.4,0.8,4.5,2,6.4,3.5l-4.9,6.9c-1.6-1.1-3.3-2-5-2.6c-1.7-0.6-3.3-0.9-4.9-0.9c-1.2,0-2.1,0.2-2.6,0.7s-0.9,1-0.9,1.6v0.1
				c0,0.4,0.1,0.8,0.3,1.1c0.2,0.3,0.5,0.6,1,0.8c0.5,0.3,1.1,0.5,1.9,0.8c0.8,0.3,1.8,0.5,3,0.8c2,0.4,3.8,0.9,5.5,1.5
				c1.6,0.6,3,1.3,4.1,2.1c1.1,0.8,2,1.8,2.6,3c0.6,1.2,0.9,2.6,0.9,4.2v0.1c0,1.8-0.3,3.4-1,4.8c-0.7,1.4-1.7,2.6-2.9,3.6
				c-1.2,1-2.7,1.7-4.5,2.3C762.9,50.8,761,51.1,758.8,51.1z"/>
		</g>
		<g>
			<path class="st0" d="M557.7,57.2c0,16.8,13.7,30.5,30.5,30.5c16.2,0,29.5-12.6,30.5-28.7h-8.6c-0.9,11.3-10.5,20.2-21.9,20.2
				c-12.1,0-22-9.9-22-22s9.9-22,22-22c3.1,0,6.2,0.7,9.1,2c0.1,0,0.1,0.1,0.2,0.1l-6.3-10.4c-1-0.1-2-0.1-2.9-0.1
				C571.4,26.6,557.7,40.3,557.7,57.2z"/>
			<path class="st1" d="M533.4,30.7c10.8,0.9,19.9,8.2,23.1,18.4c3.6-14.4,16.8-24.8,31.8-24.8c0.5,0,1,0,1.5,0l-5.1-8.4
				c-11.3,1-21.8,6.7-28.9,15.7l-0.2,0.3l-0.3-0.2c-2.2-2.1-4.8-4-7.5-5.4l-0.3-0.2L567.1,0h-62.5v8.5H550L533.4,30.7z"/>
			<path class="st0" d="M524.9,87.7c16.8,0,30.5-13.7,30.5-30.5c0-13.4-10.9-24.3-24.3-24.3h-2.2l16.6-22.1h-40.9v8.5h23.8
				l-16.6,22.1h19.3c8.7,0,15.8,7.1,15.8,15.8c0,12.1-9.9,22-22,22c-12,0-21.8-9.6-22-21.5c0,0,0-0.1,0-0.1l-7,9.3
				C500,78.9,511.5,87.7,524.9,87.7z"/>
			<path class="st1" d="M621,59c-1,17.4-15.3,30.9-32.7,30.9c-14.7,0-27.7-10-31.6-24.1l-0.1-0.2l-0.1,0.2l0,0
				c-3.9,14.1-16.9,24.1-31.6,24.1c-13.7,0-25.5-8.4-30.4-20.4l-0.2-0.6l-5.8,7.7c7,13,20.7,21.8,36.4,21.8
				c12.1,0,23.5-5.3,31.4-14.5l0.2-0.3l0.2,0.3c7.9,9.2,19.3,14.5,31.4,14.5c10.8,0,20.9-4.1,28.7-11.6c7.6-7.4,12.1-17.3,12.6-27.8
				H621z"/>
		</g>
		<path class="st1" d="M609.1,37.3l-13.4-22h11.1l7.2,12.8l7.3-12.8h10.9l-13.4,21.9v13.3h-9.8V37.3z"/>
	</g>
</g>
<g>
	<path d="M157.3,68.1c0,0.2,0,0.3,0,0.4c0,0.1,0,0.2-0.1,0.3c0,0.1-0.1,0.1-0.1,0.2c0,0-0.1,0.1-0.1,0.1h-2.8v9.4
		c0,0.1,0,0.1-0.1,0.2c0,0-0.1,0.1-0.2,0.1c-0.1,0-0.2,0.1-0.3,0.1c-0.1,0-0.3,0-0.5,0c-0.2,0-0.4,0-0.5,0c-0.1,0-0.3,0-0.3-0.1
		c-0.1,0-0.1-0.1-0.2-0.1c0,0-0.1-0.1-0.1-0.2V69h-2.8c-0.1,0-0.1,0-0.1-0.1c0,0-0.1-0.1-0.1-0.2c0-0.1-0.1-0.2-0.1-0.3
		c0-0.1,0-0.3,0-0.4c0-0.2,0-0.3,0-0.5c0-0.1,0-0.2,0.1-0.3c0-0.1,0.1-0.1,0.1-0.2c0,0,0.1,0,0.1,0h7.8c0.1,0,0.1,0,0.1,0
		c0,0,0.1,0.1,0.1,0.2c0,0.1,0.1,0.2,0.1,0.3C157.3,67.7,157.3,67.9,157.3,68.1"/>
	<path d="M167.9,78.4c0,0.1,0,0.1-0.1,0.2c0,0-0.1,0.1-0.2,0.1c-0.1,0-0.2,0.1-0.3,0.1c-0.1,0-0.3,0-0.5,0c-0.2,0-0.4,0-0.5,0
		c-0.1,0-0.3,0-0.3-0.1c-0.1,0-0.1-0.1-0.2-0.1c0,0-0.1-0.1-0.1-0.2v-4.7h-4.1v4.7c0,0.1,0,0.1-0.1,0.2c0,0-0.1,0.1-0.2,0.1
		c-0.1,0-0.2,0.1-0.3,0.1c-0.1,0-0.3,0-0.5,0c-0.2,0-0.4,0-0.5,0c-0.1,0-0.3,0-0.3-0.1c-0.1,0-0.1-0.1-0.2-0.1c0,0-0.1-0.1-0.1-0.2
		v-11c0-0.1,0-0.1,0.1-0.2c0,0,0.1-0.1,0.2-0.1c0.1,0,0.2-0.1,0.3-0.1c0.1,0,0.3,0,0.5,0c0.2,0,0.4,0,0.5,0c0.1,0,0.3,0,0.3,0.1
		c0.1,0,0.1,0.1,0.2,0.1c0,0,0.1,0.1,0.1,0.2v4.3h4.1v-4.3c0-0.1,0-0.1,0.1-0.2c0,0,0.1-0.1,0.2-0.1c0.1,0,0.2-0.1,0.3-0.1
		c0.1,0,0.3,0,0.5,0c0.2,0,0.4,0,0.5,0c0.1,0,0.3,0,0.3,0.1c0.1,0,0.1,0.1,0.2,0.1c0,0,0.1,0.1,0.1,0.2V78.4z"/>
	<path d="M176.1,77.8c0,0.2,0,0.3,0,0.4c0,0.1,0,0.2-0.1,0.3c0,0.1-0.1,0.1-0.1,0.2c0,0-0.1,0-0.1,0h-5.5c-0.2,0-0.3-0.1-0.5-0.2
		c-0.1-0.1-0.2-0.3-0.2-0.6V67.8c0-0.3,0.1-0.5,0.2-0.6c0.1-0.1,0.3-0.2,0.5-0.2h5.5c0.1,0,0.1,0,0.1,0c0,0,0.1,0.1,0.1,0.2
		c0,0.1,0.1,0.2,0.1,0.3c0,0.1,0,0.3,0,0.4c0,0.2,0,0.3,0,0.4c0,0.1,0,0.2-0.1,0.3c0,0.1-0.1,0.1-0.1,0.2c0,0-0.1,0-0.1,0h-3.9v2.8
		h3.3c0.1,0,0.1,0,0.1,0c0,0,0.1,0.1,0.1,0.2c0,0.1,0,0.2,0.1,0.3c0,0.1,0,0.3,0,0.4c0,0.2,0,0.3,0,0.4c0,0.1,0,0.2-0.1,0.3
		c0,0.1-0.1,0.1-0.1,0.1c0,0-0.1,0-0.1,0h-3.3v3.3h4c0.1,0,0.1,0,0.1,0c0,0,0.1,0.1,0.1,0.2c0,0.1,0,0.2,0.1,0.3
		C176.1,77.5,176.1,77.6,176.1,77.8"/>
	<path class="st0" d="M184.4,78.4c0,0.1,0,0.1-0.1,0.2s-0.1,0.1-0.2,0.1c-0.1,0-0.2,0.1-0.3,0.1c-0.1,0-0.3,0-0.5,0
		c-0.2,0-0.4,0-0.5,0c-0.1,0-0.3,0-0.3-0.1c-0.1,0-0.1-0.1-0.2-0.1s-0.1-0.1-0.1-0.2v-11c0-0.1,0-0.1,0.1-0.2c0,0,0.1-0.1,0.2-0.1
		c0.1,0,0.2-0.1,0.3-0.1c0.1,0,0.3,0,0.5,0c0.2,0,0.4,0,0.5,0c0.1,0,0.3,0,0.3,0.1c0.1,0,0.1,0.1,0.2,0.1c0,0,0.1,0.1,0.1,0.2V78.4z
		"/>
	<path class="st0" d="M195.2,77.9c0,0.1,0,0.3-0.1,0.4c0,0.1-0.1,0.2-0.2,0.3c-0.1,0.1-0.2,0.1-0.3,0.2c-0.1,0-0.2,0-0.3,0h-1
		c-0.2,0-0.4,0-0.5-0.1c-0.1,0-0.3-0.1-0.4-0.2c-0.1-0.1-0.2-0.3-0.4-0.4c-0.1-0.2-0.2-0.4-0.4-0.7l-2.7-5.4c-0.2-0.3-0.3-0.7-0.5-1
		c-0.2-0.4-0.3-0.7-0.4-1.1h0c0,0.4,0,0.9,0.1,1.3c0,0.4,0,0.9,0,1.3v6.1c0,0.1,0,0.1,0,0.2c0,0.1-0.1,0.1-0.2,0.1
		c-0.1,0-0.2,0.1-0.3,0.1c-0.1,0-0.3,0-0.5,0c-0.2,0-0.4,0-0.5,0c-0.1,0-0.2,0-0.3-0.1c-0.1,0-0.1-0.1-0.2-0.1c0,0,0-0.1,0-0.2V67.9
		c0-0.3,0.1-0.5,0.2-0.6c0.2-0.1,0.3-0.2,0.6-0.2h1.2c0.2,0,0.4,0,0.5,0.1c0.1,0,0.3,0.1,0.4,0.2c0.1,0.1,0.2,0.2,0.3,0.4
		c0.1,0.2,0.2,0.4,0.3,0.6l2.1,4.2c0.1,0.3,0.2,0.5,0.4,0.8c0.1,0.2,0.2,0.5,0.4,0.7c0.1,0.2,0.2,0.5,0.3,0.7
		c0.1,0.2,0.2,0.5,0.3,0.7h0c0-0.4,0-0.9,0-1.3c0-0.5,0-0.9,0-1.3v-5.4c0-0.1,0-0.1,0.1-0.2c0,0,0.1-0.1,0.2-0.1
		c0.1,0,0.2-0.1,0.3-0.1c0.1,0,0.3,0,0.5,0c0.2,0,0.4,0,0.5,0c0.1,0,0.2,0,0.3,0.1c0.1,0,0.1,0.1,0.1,0.1c0,0,0,0.1,0,0.2V77.9z"/>
	<path class="st0" d="M206,77.9c0,0.1,0,0.3-0.1,0.4c0,0.1-0.1,0.2-0.2,0.3c-0.1,0.1-0.2,0.1-0.3,0.2c-0.1,0-0.2,0-0.3,0h-1
		c-0.2,0-0.4,0-0.5-0.1c-0.1,0-0.3-0.1-0.4-0.2c-0.1-0.1-0.2-0.3-0.4-0.4c-0.1-0.2-0.2-0.4-0.4-0.7l-2.7-5.4c-0.2-0.3-0.3-0.7-0.5-1
		c-0.2-0.4-0.3-0.7-0.4-1.1h0c0,0.4,0,0.9,0.1,1.3c0,0.4,0,0.9,0,1.3v6.1c0,0.1,0,0.1,0,0.2c0,0.1-0.1,0.1-0.2,0.1
		c-0.1,0-0.2,0.1-0.3,0.1c-0.1,0-0.3,0-0.5,0c-0.2,0-0.4,0-0.5,0c-0.1,0-0.2,0-0.3-0.1c-0.1,0-0.1-0.1-0.2-0.1c0,0,0-0.1,0-0.2V67.9
		c0-0.3,0.1-0.5,0.2-0.6c0.2-0.1,0.3-0.2,0.6-0.2h1.2c0.2,0,0.4,0,0.5,0.1c0.1,0,0.3,0.1,0.4,0.2c0.1,0.1,0.2,0.2,0.3,0.4
		c0.1,0.2,0.2,0.4,0.3,0.6l2.1,4.2c0.1,0.3,0.2,0.5,0.4,0.8c0.1,0.2,0.2,0.5,0.4,0.7c0.1,0.2,0.2,0.5,0.3,0.7
		c0.1,0.2,0.2,0.5,0.3,0.7h0c0-0.4,0-0.9,0-1.3c0-0.5,0-0.9,0-1.3v-5.4c0-0.1,0-0.1,0.1-0.2c0,0,0.1-0.1,0.2-0.1
		c0.1,0,0.2-0.1,0.3-0.1c0.1,0,0.3,0,0.5,0c0.2,0,0.4,0,0.5,0c0.1,0,0.2,0,0.3,0.1c0.1,0,0.1,0.1,0.1,0.1c0,0,0,0.1,0,0.2V77.9z"/>
	<path class="st0" d="M217.9,72.8c0,1-0.1,1.8-0.3,2.6c-0.2,0.8-0.6,1.4-1,1.9c-0.4,0.5-1,0.9-1.7,1.2c-0.7,0.3-1.4,0.4-2.3,0.4
		c-0.9,0-1.6-0.1-2.2-0.4c-0.6-0.2-1.2-0.6-1.6-1.1c-0.4-0.5-0.7-1.1-1-1.8c-0.2-0.7-0.3-1.6-0.3-2.7c0-0.9,0.1-1.8,0.3-2.5
		c0.2-0.7,0.6-1.4,1-1.9c0.4-0.5,1-0.9,1.7-1.2c0.7-0.3,1.4-0.4,2.3-0.4c0.8,0,1.6,0.1,2.2,0.3c0.6,0.2,1.2,0.6,1.6,1.1
		c0.4,0.5,0.8,1.1,1,1.8C217.8,70.9,217.9,71.8,217.9,72.8 M215.6,72.9c0-0.6,0-1.2-0.1-1.7c-0.1-0.5-0.2-0.9-0.5-1.3
		c-0.2-0.4-0.5-0.6-0.9-0.8c-0.4-0.2-0.8-0.3-1.4-0.3c-0.5,0-1,0.1-1.4,0.3c-0.4,0.2-0.7,0.5-0.9,0.9c-0.2,0.4-0.4,0.8-0.5,1.3
		c-0.1,0.5-0.1,1-0.1,1.5c0,0.6,0,1.2,0.1,1.7c0.1,0.5,0.2,0.9,0.5,1.3c0.2,0.4,0.5,0.6,0.9,0.8c0.4,0.2,0.8,0.3,1.4,0.3
		c0.6,0,1-0.1,1.4-0.3c0.4-0.2,0.7-0.5,0.9-0.9c0.2-0.4,0.4-0.8,0.5-1.3C215.5,74,215.6,73.5,215.6,72.9"/>
	<path class="st0" d="M224.8,78.3c0,0.1-0.1,0.2-0.1,0.2c0,0.1-0.1,0.1-0.2,0.1c-0.1,0-0.2,0.1-0.4,0.1c-0.2,0-0.4,0-0.7,0
		c-0.2,0-0.4,0-0.6,0c-0.2,0-0.3,0-0.4,0c-0.1,0-0.2,0-0.3-0.1c-0.1,0-0.1-0.1-0.2-0.1c0,0-0.1-0.1-0.1-0.1c0-0.1,0-0.1-0.1-0.2
		L218.4,68c-0.1-0.2-0.1-0.4-0.1-0.5c0-0.1,0-0.2,0.1-0.3c0.1-0.1,0.2-0.1,0.4-0.1c0.2,0,0.4,0,0.7,0c0.3,0,0.5,0,0.6,0
		c0.1,0,0.3,0,0.3,0.1c0.1,0,0.1,0.1,0.2,0.1c0,0.1,0.1,0.1,0.1,0.2l2.7,9h0l2.6-8.9c0-0.1,0.1-0.2,0.1-0.2c0-0.1,0.1-0.1,0.2-0.1
		c0.1,0,0.2-0.1,0.3-0.1c0.2,0,0.4,0,0.6,0c0.3,0,0.5,0,0.6,0c0.1,0,0.2,0.1,0.3,0.1c0.1,0.1,0.1,0.2,0.1,0.3c0,0.1-0.1,0.3-0.1,0.5
		L224.8,78.3z"/>
	<path class="st0" d="M236.8,77.8c0.1,0.2,0.1,0.4,0.1,0.5c0,0.1,0,0.2-0.1,0.3c-0.1,0.1-0.2,0.1-0.3,0.1c-0.2,0-0.4,0-0.7,0
		c-0.3,0-0.5,0-0.7,0c-0.2,0-0.3,0-0.4-0.1c-0.1,0-0.1-0.1-0.2-0.1c0,0-0.1-0.1-0.1-0.2l-0.7-2.3h-4.1l-0.7,2.3
		c0,0.1-0.1,0.2-0.1,0.2c0,0.1-0.1,0.1-0.2,0.1c-0.1,0-0.2,0.1-0.3,0.1c-0.2,0-0.3,0-0.6,0c-0.3,0-0.5,0-0.6,0
		c-0.1,0-0.2-0.1-0.3-0.1c-0.1-0.1-0.1-0.2-0.1-0.3c0-0.1,0.1-0.3,0.1-0.5l3.4-10.3c0-0.1,0.1-0.2,0.1-0.2c0-0.1,0.1-0.1,0.2-0.1
		c0.1,0,0.2-0.1,0.4-0.1c0.2,0,0.4,0,0.7,0c0.3,0,0.6,0,0.8,0c0.2,0,0.4,0,0.5,0.1c0.1,0,0.2,0.1,0.2,0.1c0,0.1,0.1,0.2,0.1,0.3
		L236.8,77.8z M231.7,69.3L231.7,69.3l-1.6,4.9h3.1L231.7,69.3z"/>
	<path class="st0" d="M244,68.1c0,0.2,0,0.3,0,0.4c0,0.1,0,0.2-0.1,0.3c0,0.1-0.1,0.1-0.1,0.2c0,0-0.1,0.1-0.1,0.1h-2.8v9.4
		c0,0.1,0,0.1-0.1,0.2c0,0-0.1,0.1-0.2,0.1s-0.2,0.1-0.3,0.1c-0.1,0-0.3,0-0.5,0c-0.2,0-0.4,0-0.5,0c-0.1,0-0.3,0-0.3-0.1
		c-0.1,0-0.1-0.1-0.2-0.1c0,0-0.1-0.1-0.1-0.2V69h-2.8c-0.1,0-0.1,0-0.1-0.1c0,0-0.1-0.1-0.1-0.2c0-0.1,0-0.2-0.1-0.3
		c0-0.1,0-0.3,0-0.4c0-0.2,0-0.3,0-0.5c0-0.1,0-0.2,0.1-0.3c0-0.1,0.1-0.1,0.1-0.2c0,0,0.1,0,0.1,0h7.8c0,0,0.1,0,0.1,0
		c0,0,0.1,0.1,0.1,0.2c0,0.1,0,0.2,0.1,0.3C243.9,67.7,244,67.9,244,68.1"/>
	<path class="st0" d="M248.2,78.4c0,0.1,0,0.1-0.1,0.2s-0.1,0.1-0.2,0.1c-0.1,0-0.2,0.1-0.3,0.1c-0.1,0-0.3,0-0.5,0
		c-0.2,0-0.4,0-0.5,0c-0.1,0-0.3,0-0.3-0.1c-0.1,0-0.1-0.1-0.2-0.1s-0.1-0.1-0.1-0.2v-11c0-0.1,0-0.1,0.1-0.2c0,0,0.1-0.1,0.2-0.1
		c0.1,0,0.2-0.1,0.3-0.1s0.3,0,0.5,0c0.2,0,0.4,0,0.5,0c0.1,0,0.3,0,0.3,0.1c0.1,0,0.1,0.1,0.2,0.1c0,0,0.1,0.1,0.1,0.2V78.4z"/>
	<path class="st0" d="M256.5,78.3c0,0.1-0.1,0.2-0.1,0.2c0,0.1-0.1,0.1-0.2,0.1c-0.1,0-0.2,0.1-0.4,0.1c-0.2,0-0.4,0-0.7,0
		c-0.2,0-0.4,0-0.6,0c-0.2,0-0.3,0-0.4,0c-0.1,0-0.2,0-0.3-0.1c-0.1,0-0.1-0.1-0.2-0.1c0,0-0.1-0.1-0.1-0.1c0-0.1-0.1-0.1-0.1-0.2
		L250.1,68c-0.1-0.2-0.1-0.4-0.1-0.5c0-0.1,0-0.2,0.1-0.3c0.1-0.1,0.2-0.1,0.4-0.1c0.2,0,0.4,0,0.7,0c0.3,0,0.5,0,0.6,0
		c0.1,0,0.3,0,0.3,0.1c0.1,0,0.1,0.1,0.2,0.1c0,0.1,0.1,0.1,0.1,0.2l2.7,9h0l2.6-8.9c0-0.1,0.1-0.2,0.1-0.2c0-0.1,0.1-0.1,0.2-0.1
		c0.1,0,0.2-0.1,0.4-0.1c0.2,0,0.4,0,0.6,0c0.3,0,0.5,0,0.6,0c0.1,0,0.2,0.1,0.3,0.1c0.1,0.1,0.1,0.2,0.1,0.3c0,0.1-0.1,0.3-0.1,0.5
		L256.5,78.3z"/>
	<path class="st0" d="M267.9,77.8c0,0.2,0,0.3,0,0.4c0,0.1,0,0.2-0.1,0.3c0,0.1-0.1,0.1-0.1,0.2c0,0-0.1,0-0.1,0H262
		c-0.2,0-0.3-0.1-0.5-0.2c-0.1-0.1-0.2-0.3-0.2-0.6V67.8c0-0.3,0.1-0.5,0.2-0.6c0.1-0.1,0.3-0.2,0.5-0.2h5.5c0.1,0,0.1,0,0.1,0
		c0,0,0.1,0.1,0.1,0.2c0,0.1,0,0.2,0.1,0.3c0,0.1,0,0.3,0,0.4c0,0.2,0,0.3,0,0.4c0,0.1,0,0.2-0.1,0.3c0,0.1-0.1,0.1-0.1,0.2
		c0,0-0.1,0-0.1,0h-3.9v2.8h3.3c0.1,0,0.1,0,0.1,0c0,0,0.1,0.1,0.1,0.2c0,0.1,0.1,0.2,0.1,0.3c0,0.1,0,0.3,0,0.4c0,0.2,0,0.3,0,0.4
		c0,0.1,0,0.2-0.1,0.3c0,0.1-0.1,0.1-0.1,0.1c0,0-0.1,0-0.1,0h-3.3v3.3h4c0.1,0,0.1,0,0.1,0c0,0,0.1,0.1,0.1,0.2
		c0,0.1,0,0.2,0.1,0.3C267.8,77.5,267.9,77.6,267.9,77.8"/>
	<path d="M282.2,70.5c0,0.7-0.1,1.2-0.3,1.8c-0.2,0.5-0.5,0.9-0.9,1.3c-0.4,0.4-0.9,0.6-1.5,0.8c-0.6,0.2-1.2,0.3-2,0.3h-1v3.8
		c0,0.1,0,0.1-0.1,0.2c0,0-0.1,0.1-0.2,0.1c-0.1,0-0.2,0.1-0.4,0.1c-0.1,0-0.3,0-0.6,0c-0.2,0-0.4,0-0.6,0c-0.2,0-0.3,0-0.4-0.1
		c-0.1,0-0.2-0.1-0.2-0.1c0,0-0.1-0.1-0.1-0.2V67.8c0-0.3,0.1-0.5,0.2-0.6c0.1-0.1,0.3-0.2,0.6-0.2h2.8c0.3,0,0.5,0,0.8,0
		c0.3,0,0.6,0.1,0.9,0.1c0.4,0.1,0.7,0.2,1.1,0.4c0.4,0.2,0.7,0.4,0.9,0.7c0.3,0.3,0.4,0.6,0.6,1C282.1,69.6,282.2,70,282.2,70.5
		 M279.7,70.7c0-0.4-0.1-0.8-0.2-1c-0.1-0.3-0.3-0.5-0.5-0.6c-0.2-0.1-0.4-0.2-0.7-0.2c-0.2,0-0.5,0-0.7,0h-1v4h1.1
		c0.4,0,0.7-0.1,1-0.2c0.3-0.1,0.5-0.2,0.6-0.4c0.2-0.2,0.3-0.4,0.4-0.7C279.6,71.3,279.7,71,279.7,70.7"/>
	<path d="M295.1,72.7c0,1-0.1,1.9-0.4,2.6c-0.2,0.8-0.6,1.4-1.1,2c-0.5,0.5-1.1,0.9-1.8,1.2c-0.7,0.3-1.5,0.4-2.5,0.4
		c-0.9,0-1.7-0.1-2.4-0.4c-0.7-0.2-1.3-0.6-1.7-1.1c-0.5-0.5-0.8-1.1-1-1.9c-0.2-0.8-0.3-1.7-0.3-2.7c0-1,0.1-1.8,0.4-2.6
		c0.2-0.8,0.6-1.4,1.1-1.9c0.5-0.5,1.1-0.9,1.8-1.2c0.7-0.3,1.5-0.4,2.5-0.4c0.9,0,1.7,0.1,2.4,0.4c0.7,0.2,1.3,0.6,1.7,1.1
		c0.5,0.5,0.8,1.1,1,1.9C295,70.8,295.1,71.7,295.1,72.7 M292.6,72.8c0-0.6,0-1.2-0.1-1.7c-0.1-0.5-0.3-0.9-0.5-1.3
		c-0.2-0.4-0.5-0.6-0.9-0.8c-0.4-0.2-0.9-0.3-1.5-0.3c-0.6,0-1.1,0.1-1.5,0.3c-0.4,0.2-0.7,0.5-1,0.9c-0.2,0.4-0.4,0.8-0.5,1.3
		c-0.1,0.5-0.1,1-0.1,1.6c0,0.6,0,1.2,0.1,1.7c0.1,0.5,0.3,1,0.5,1.3c0.2,0.4,0.5,0.6,0.9,0.8c0.4,0.2,0.9,0.3,1.5,0.3
		c0.6,0,1.1-0.1,1.5-0.3c0.4-0.2,0.7-0.5,1-0.9c0.2-0.4,0.4-0.8,0.5-1.3C292.5,73.9,292.6,73.4,292.6,72.8"/>
	<path d="M303.6,77.7c0,0.2,0,0.3,0,0.5c0,0.1,0,0.2-0.1,0.3c0,0.1-0.1,0.1-0.1,0.2c0,0-0.1,0.1-0.2,0.1h-5.4
		c-0.2,0-0.4-0.1-0.5-0.2c-0.1-0.1-0.2-0.3-0.2-0.6V67.3c0-0.1,0-0.1,0.1-0.2c0,0,0.1-0.1,0.2-0.1c0.1,0,0.2-0.1,0.4-0.1
		c0.2,0,0.3,0,0.6,0c0.2,0,0.4,0,0.6,0c0.2,0,0.3,0,0.4,0.1c0.1,0,0.2,0.1,0.2,0.1c0,0,0.1,0.1,0.1,0.2v9.5h3.7c0.1,0,0.1,0,0.2,0.1
		c0,0,0.1,0.1,0.1,0.2c0,0.1,0.1,0.2,0.1,0.3C303.6,77.4,303.6,77.5,303.6,77.7"/>
	<path d="M308.2,74.2v4.1c0,0.1,0,0.1-0.1,0.2c0,0-0.1,0.1-0.2,0.1c-0.1,0-0.2,0.1-0.4,0.1c-0.2,0-0.3,0-0.6,0c-0.2,0-0.4,0-0.6,0
		c-0.2,0-0.3,0-0.4-0.1c-0.1,0-0.2-0.1-0.2-0.1c0,0-0.1-0.1-0.1-0.2v-4.1l-3.2-6.4c-0.1-0.2-0.2-0.4-0.2-0.5c0-0.1,0-0.2,0.1-0.3
		c0.1-0.1,0.2-0.1,0.4-0.1c0.2,0,0.4,0,0.8,0c0.3,0,0.5,0,0.7,0c0.2,0,0.3,0,0.4,0.1c0.1,0,0.2,0.1,0.2,0.1s0.1,0.1,0.1,0.2l1.3,2.9
		c0.1,0.3,0.3,0.6,0.4,0.9c0.1,0.3,0.3,0.6,0.4,1h0c0.1-0.3,0.2-0.6,0.4-1c0.1-0.3,0.2-0.6,0.4-0.9l1.3-2.9c0-0.1,0.1-0.2,0.1-0.2
		c0-0.1,0.1-0.1,0.2-0.1c0.1,0,0.2-0.1,0.4-0.1c0.2,0,0.4,0,0.6,0c0.3,0,0.6,0,0.8,0c0.2,0,0.3,0.1,0.4,0.1c0.1,0.1,0.1,0.2,0,0.3
		c0,0.1-0.1,0.3-0.2,0.5L308.2,74.2z"/>
	<path d="M322.1,67.9c0,0.2,0,0.3,0,0.5c0,0.1,0,0.2-0.1,0.3c0,0.1-0.1,0.1-0.1,0.2c0,0-0.1,0.1-0.2,0.1h-3v9.5c0,0.1,0,0.1-0.1,0.2
		c0,0-0.1,0.1-0.2,0.1c-0.1,0-0.2,0.1-0.4,0.1c-0.2,0-0.3,0-0.6,0c-0.2,0-0.4,0-0.6,0c-0.2,0-0.3,0-0.4-0.1c-0.1,0-0.2-0.1-0.2-0.1
		c0-0.1-0.1-0.1-0.1-0.2v-9.5h-3c-0.1,0-0.1,0-0.2-0.1c0,0-0.1-0.1-0.1-0.2c0-0.1-0.1-0.2-0.1-0.3c0-0.1,0-0.3,0-0.5
		c0-0.2,0-0.3,0-0.5c0-0.1,0-0.2,0.1-0.3c0-0.1,0.1-0.1,0.1-0.2c0,0,0.1-0.1,0.2-0.1h8.3c0.1,0,0.1,0,0.2,0.1c0,0,0.1,0.1,0.1,0.2
		c0,0.1,0.1,0.2,0.1,0.3C322.1,67.6,322.1,67.7,322.1,67.9"/>
	<path d="M330.9,77.8c0,0.2,0,0.3,0,0.4c0,0.1,0,0.2-0.1,0.3c0,0.1-0.1,0.1-0.1,0.2c0,0-0.1,0-0.2,0h-5.9c-0.2,0-0.4-0.1-0.5-0.2
		c-0.1-0.1-0.2-0.3-0.2-0.6V67.7c0-0.3,0.1-0.5,0.2-0.6c0.1-0.1,0.3-0.2,0.5-0.2h5.9c0.1,0,0.1,0,0.1,0c0,0,0.1,0.1,0.1,0.2
		c0,0.1,0.1,0.2,0.1,0.3c0,0.1,0,0.3,0,0.5c0,0.2,0,0.3,0,0.4c0,0.1,0,0.2-0.1,0.3c0,0.1-0.1,0.1-0.1,0.2c0,0-0.1,0-0.1,0h-4.2v2.9
		h3.6c0.1,0,0.1,0,0.1,0.1c0,0,0.1,0.1,0.1,0.2c0,0.1,0.1,0.2,0.1,0.3c0,0.1,0,0.3,0,0.4c0,0.2,0,0.3,0,0.4c0,0.1,0,0.2-0.1,0.3
		c0,0.1-0.1,0.1-0.1,0.1c0,0-0.1,0-0.1,0h-3.6v3.3h4.2c0.1,0,0.1,0,0.2,0c0,0,0.1,0.1,0.1,0.2c0,0.1,0.1,0.2,0.1,0.3
		C330.9,77.5,330.9,77.6,330.9,77.8"/>
	<path d="M341.3,76.9c0,0.2,0,0.3,0,0.4c0,0.1,0,0.2,0,0.3c0,0.1,0,0.1-0.1,0.2c0,0.1-0.1,0.1-0.1,0.2c-0.1,0.1-0.2,0.2-0.4,0.3
		c-0.2,0.1-0.4,0.2-0.7,0.3c-0.3,0.1-0.6,0.2-0.9,0.3c-0.4,0.1-0.7,0.1-1.2,0.1c-0.8,0-1.5-0.1-2.2-0.4c-0.6-0.3-1.2-0.6-1.7-1.1
		c-0.5-0.5-0.8-1.1-1-1.9c-0.2-0.7-0.4-1.6-0.4-2.6c0-1,0.1-1.9,0.4-2.7c0.3-0.8,0.6-1.4,1.1-2c0.5-0.5,1.1-0.9,1.7-1.2
		c0.7-0.3,1.4-0.4,2.2-0.4c0.3,0,0.6,0,0.9,0.1c0.3,0.1,0.6,0.1,0.8,0.2c0.3,0.1,0.5,0.2,0.7,0.3c0.2,0.1,0.4,0.2,0.4,0.3
		c0.1,0.1,0.1,0.2,0.2,0.2c0,0.1,0.1,0.1,0.1,0.2c0,0.1,0,0.2,0,0.3c0,0.1,0,0.3,0,0.4c0,0.2,0,0.3,0,0.5c0,0.1,0,0.2-0.1,0.3
		c0,0.1-0.1,0.1-0.1,0.2c0,0-0.1,0.1-0.1,0.1c-0.1,0-0.2-0.1-0.3-0.2c-0.1-0.1-0.3-0.2-0.5-0.4c-0.2-0.1-0.5-0.2-0.8-0.4
		c-0.3-0.1-0.7-0.2-1.1-0.2c-0.5,0-0.9,0.1-1.3,0.3c-0.4,0.2-0.7,0.5-0.9,0.8c-0.3,0.4-0.5,0.8-0.6,1.3c-0.1,0.5-0.2,1.1-0.2,1.7
		c0,0.7,0.1,1.3,0.2,1.8c0.1,0.5,0.3,0.9,0.6,1.3c0.3,0.3,0.6,0.6,1,0.7c0.4,0.2,0.8,0.2,1.3,0.2c0.4,0,0.8,0,1.1-0.1
		c0.3-0.1,0.6-0.2,0.8-0.3c0.2-0.1,0.4-0.2,0.5-0.3c0.1-0.1,0.3-0.1,0.3-0.1c0.1,0,0.1,0,0.1,0c0,0,0.1,0.1,0.1,0.1s0,0.2,0.1,0.3
		C341.3,76.5,341.3,76.7,341.3,76.9"/>
	<path d="M352.2,78.4c0,0.1,0,0.1-0.1,0.2c0,0-0.1,0.1-0.2,0.1c-0.1,0-0.2,0.1-0.4,0.1c-0.2,0-0.3,0-0.6,0c-0.2,0-0.4,0-0.6,0
		c-0.2,0-0.3,0-0.4-0.1c-0.1,0-0.2-0.1-0.2-0.1c0,0-0.1-0.1-0.1-0.2v-4.8h-4.4v4.8c0,0.1,0,0.1-0.1,0.2c0,0-0.1,0.1-0.2,0.1
		c-0.1,0-0.2,0.1-0.4,0.1c-0.2,0-0.3,0-0.6,0c-0.2,0-0.4,0-0.6,0c-0.2,0-0.3,0-0.4-0.1c-0.1,0-0.2-0.1-0.2-0.1c0,0-0.1-0.1-0.1-0.2
		V67.3c0-0.1,0-0.1,0.1-0.2c0,0,0.1-0.1,0.2-0.1c0.1,0,0.2-0.1,0.4-0.1c0.2,0,0.3,0,0.6,0c0.2,0,0.4,0,0.6,0c0.2,0,0.3,0,0.4,0.1
		c0.1,0,0.2,0.1,0.2,0.1c0,0,0.1,0.1,0.1,0.2v4.3h4.4v-4.3c0-0.1,0-0.1,0.1-0.2c0,0,0.1-0.1,0.2-0.1c0.1,0,0.2-0.1,0.4-0.1
		c0.2,0,0.3,0,0.6,0c0.2,0,0.4,0,0.6,0c0.2,0,0.3,0,0.4,0.1c0.1,0,0.2,0.1,0.2,0.1c0,0,0.1,0.1,0.1,0.2V78.4z"/>
	<path d="M363.8,77.9c0,0.1,0,0.3-0.1,0.4c-0.1,0.1-0.1,0.2-0.2,0.3c-0.1,0.1-0.2,0.1-0.3,0.2c-0.1,0-0.2,0-0.3,0h-1
		c-0.2,0-0.4,0-0.5-0.1c-0.2,0-0.3-0.1-0.4-0.2c-0.1-0.1-0.3-0.3-0.4-0.5c-0.1-0.2-0.3-0.4-0.4-0.7l-2.9-5.5
		c-0.2-0.3-0.3-0.7-0.5-1.1c-0.2-0.4-0.3-0.7-0.5-1.1h0c0,0.4,0,0.9,0.1,1.3c0,0.4,0,0.9,0,1.3v6.2c0,0.1,0,0.1-0.1,0.2
		c0,0-0.1,0.1-0.2,0.1c-0.1,0-0.2,0.1-0.3,0.1c-0.1,0-0.3,0-0.5,0c-0.2,0-0.4,0-0.5,0c-0.1,0-0.2,0-0.3-0.1c-0.1,0-0.1-0.1-0.2-0.1
		c0,0,0-0.1,0-0.2V67.8c0-0.3,0.1-0.5,0.3-0.6c0.2-0.1,0.4-0.2,0.6-0.2h1.3c0.2,0,0.4,0,0.6,0.1c0.2,0,0.3,0.1,0.4,0.2
		c0.1,0.1,0.2,0.2,0.3,0.4c0.1,0.2,0.2,0.4,0.3,0.6l2.3,4.3c0.1,0.3,0.3,0.5,0.4,0.8c0.1,0.3,0.3,0.5,0.4,0.8
		c0.1,0.3,0.2,0.5,0.4,0.7c0.1,0.2,0.2,0.5,0.3,0.7h0c0-0.4,0-0.9,0-1.3c0-0.5,0-0.9,0-1.3v-5.5c0-0.1,0-0.1,0.1-0.2
		c0,0,0.1-0.1,0.2-0.1s0.2-0.1,0.3-0.1c0.1,0,0.3,0,0.5,0c0.2,0,0.4,0,0.5,0c0.1,0,0.2,0,0.3,0.1c0.1,0,0.1,0.1,0.2,0.1
		c0,0,0,0.1,0,0.2V77.9z"/>
	<path d="M368.1,78.4c0,0.1,0,0.1-0.1,0.2c0,0-0.1,0.1-0.2,0.1c-0.1,0-0.2,0.1-0.4,0.1c-0.2,0-0.3,0-0.6,0c-0.2,0-0.4,0-0.6,0
		c-0.2,0-0.3,0-0.4-0.1c-0.1,0-0.2-0.1-0.2-0.1c0,0-0.1-0.1-0.1-0.2V67.3c0-0.1,0-0.1,0.1-0.2c0,0,0.1-0.1,0.2-0.1
		c0.1,0,0.2-0.1,0.4-0.1c0.2,0,0.3,0,0.6,0c0.2,0,0.4,0,0.6,0c0.1,0,0.3,0,0.4,0.1c0.1,0,0.2,0.1,0.2,0.1c0,0,0.1,0.1,0.1,0.2V78.4z
		"/>
	<path d="M378.8,76.9c0,0.2,0,0.3,0,0.4c0,0.1,0,0.2,0,0.3c0,0.1,0,0.1-0.1,0.2c0,0.1-0.1,0.1-0.1,0.2c-0.1,0.1-0.2,0.2-0.4,0.3
		c-0.2,0.1-0.4,0.2-0.7,0.3c-0.3,0.1-0.6,0.2-0.9,0.3c-0.4,0.1-0.7,0.1-1.2,0.1c-0.8,0-1.5-0.1-2.2-0.4c-0.6-0.3-1.2-0.6-1.7-1.1
		c-0.5-0.5-0.8-1.1-1-1.9c-0.2-0.7-0.4-1.6-0.4-2.6c0-1,0.1-1.9,0.4-2.7c0.3-0.8,0.6-1.4,1.1-2c0.5-0.5,1.1-0.9,1.7-1.2
		c0.7-0.3,1.4-0.4,2.2-0.4c0.3,0,0.6,0,0.9,0.1c0.3,0.1,0.6,0.1,0.8,0.2c0.3,0.1,0.5,0.2,0.7,0.3c0.2,0.1,0.4,0.2,0.4,0.3
		c0.1,0.1,0.1,0.2,0.2,0.2c0,0.1,0.1,0.1,0.1,0.2c0,0.1,0,0.2,0,0.3c0,0.1,0,0.3,0,0.4c0,0.2,0,0.3,0,0.5c0,0.1,0,0.2-0.1,0.3
		c0,0.1-0.1,0.1-0.1,0.2c0,0-0.1,0.1-0.1,0.1c-0.1,0-0.2-0.1-0.3-0.2c-0.1-0.1-0.3-0.2-0.5-0.4c-0.2-0.1-0.5-0.2-0.8-0.4
		c-0.3-0.1-0.7-0.2-1.1-0.2c-0.5,0-0.9,0.1-1.3,0.3c-0.4,0.2-0.7,0.5-0.9,0.8c-0.3,0.4-0.5,0.8-0.6,1.3c-0.1,0.5-0.2,1.1-0.2,1.7
		c0,0.7,0.1,1.3,0.2,1.8c0.1,0.5,0.3,0.9,0.6,1.3c0.3,0.3,0.6,0.6,1,0.7c0.4,0.2,0.8,0.2,1.3,0.2c0.4,0,0.8,0,1.1-0.1
		c0.3-0.1,0.6-0.2,0.8-0.3c0.2-0.1,0.4-0.2,0.5-0.3c0.1-0.1,0.3-0.1,0.3-0.1c0.1,0,0.1,0,0.1,0c0,0,0.1,0.1,0.1,0.1
		c0,0.1,0,0.2,0.1,0.3C378.8,76.5,378.8,76.7,378.8,76.9"/>
	<polygon class="st0" points="174.7,93 182.1,85.4 266.2,85.4 	"/>
	<path d="M179,54c0,0.5-0.1,0.9-0.2,1.3c-0.2,0.4-0.4,0.7-0.6,1c-0.3,0.3-0.6,0.4-0.9,0.6c-0.4,0.1-0.7,0.2-1.1,0.2H173
		c-0.7,0-1.2-0.1-1.7-0.2c-0.5-0.1-0.9-0.4-1.3-0.8c-0.4-0.4-0.8-0.9-1.2-1.6c-0.4-0.7-0.8-1.5-1.3-2.6l-9.2-19.4
		c-0.5-1.2-1.1-2.4-1.6-3.7c-0.6-1.3-1-2.6-1.5-3.9h-0.1c0.1,1.5,0.1,3.1,0.2,4.6c0,1.5,0.1,3.1,0.1,4.7v21.7c0,0.2-0.1,0.4-0.2,0.6
		c-0.1,0.2-0.3,0.3-0.5,0.4c-0.3,0.1-0.6,0.2-1,0.3c-0.4,0.1-1,0.1-1.7,0.1c-0.7,0-1.2,0-1.7-0.1c-0.4-0.1-0.8-0.2-1-0.3
		c-0.2-0.1-0.4-0.3-0.5-0.4c-0.1-0.2-0.1-0.4-0.1-0.6V18.4c0-1,0.3-1.8,0.8-2.3c0.5-0.5,1.2-0.8,1.9-0.8h4c0.7,0,1.3,0.1,1.8,0.2
		c0.5,0.1,0.9,0.4,1.3,0.7c0.4,0.3,0.8,0.8,1.1,1.3c0.3,0.6,0.7,1.3,1.1,2.1l7.2,15.2c0.4,0.9,0.8,1.8,1.2,2.7
		c0.4,0.9,0.8,1.8,1.2,2.7c0.4,0.9,0.8,1.8,1.1,2.6c0.4,0.9,0.7,1.7,1.1,2.6h0c-0.1-1.5-0.1-3.1-0.1-4.7c0-1.6,0-3.2,0-4.7V16.7
		c0-0.2,0.1-0.4,0.2-0.6c0.1-0.2,0.3-0.3,0.6-0.4c0.3-0.1,0.6-0.2,1.1-0.3c0.4-0.1,1-0.1,1.7-0.1c0.6,0,1.2,0,1.6,0.1
		c0.4,0.1,0.8,0.1,1,0.3c0.2,0.1,0.4,0.3,0.5,0.4c0.1,0.2,0.1,0.4,0.1,0.6V54z"/>
	<path d="M215.6,53.8c0.2,0.8,0.4,1.4,0.4,1.8c0.1,0.4,0,0.8-0.2,1c-0.2,0.2-0.6,0.4-1.1,0.4c-0.5,0.1-1.3,0.1-2.2,0.1
		c-1,0-1.7,0-2.3,0c-0.5,0-1-0.1-1.2-0.2c-0.3-0.1-0.5-0.2-0.6-0.4c-0.1-0.2-0.2-0.4-0.3-0.7l-2.5-8.4h-13.9l-2.3,8.1
		c-0.1,0.3-0.2,0.6-0.3,0.8c-0.1,0.2-0.3,0.4-0.6,0.5c-0.3,0.1-0.7,0.2-1.2,0.2c-0.5,0-1.2,0.1-2,0.1c-0.9,0-1.6,0-2.1-0.1
		c-0.5-0.1-0.8-0.2-1-0.5c-0.2-0.2-0.3-0.6-0.2-1c0.1-0.4,0.2-1,0.4-1.8l11.4-36.9c0.1-0.4,0.2-0.7,0.4-0.9c0.2-0.2,0.4-0.4,0.7-0.5
		c0.3-0.1,0.8-0.2,1.4-0.2c0.6,0,1.4,0,2.3,0c1.1,0,2,0,2.7,0c0.7,0,1.2,0.1,1.6,0.2c0.4,0.1,0.6,0.3,0.8,0.5c0.2,0.2,0.3,0.6,0.4,1
		L215.6,53.8z M198.6,23.3L198.6,23.3L193.4,41h10.5L198.6,23.3z"/>
	<path d="M249.5,54c0,0.5-0.1,0.9-0.2,1.3c-0.2,0.4-0.4,0.7-0.6,1c-0.3,0.3-0.6,0.4-0.9,0.6c-0.4,0.1-0.7,0.2-1.1,0.2h-3.2
		c-0.7,0-1.2-0.1-1.7-0.2c-0.5-0.1-0.9-0.4-1.3-0.8c-0.4-0.4-0.8-0.9-1.2-1.6c-0.4-0.7-0.8-1.5-1.3-2.6l-9.2-19.4
		c-0.5-1.2-1.1-2.4-1.6-3.7c-0.6-1.3-1-2.6-1.5-3.9h-0.1c0.1,1.5,0.1,3.1,0.2,4.6c0,1.5,0.1,3.1,0.1,4.7v21.7c0,0.2-0.1,0.4-0.2,0.6
		c-0.1,0.2-0.3,0.3-0.5,0.4c-0.3,0.1-0.6,0.2-1,0.3c-0.4,0.1-1,0.1-1.7,0.1c-0.7,0-1.2,0-1.7-0.1c-0.4-0.1-0.8-0.2-1-0.3
		c-0.2-0.1-0.4-0.3-0.5-0.4c-0.1-0.2-0.1-0.4-0.1-0.6V18.4c0-1,0.3-1.8,0.8-2.3c0.5-0.5,1.2-0.8,1.9-0.8h4c0.7,0,1.3,0.1,1.8,0.2
		c0.5,0.1,0.9,0.4,1.3,0.7c0.4,0.3,0.8,0.8,1.1,1.3c0.3,0.6,0.7,1.3,1.1,2.1l7.2,15.2c0.4,0.9,0.8,1.8,1.2,2.7
		c0.4,0.9,0.8,1.8,1.2,2.7c0.4,0.9,0.8,1.8,1.1,2.6c0.4,0.9,0.7,1.7,1.1,2.6h0c-0.1-1.5-0.1-3.1-0.1-4.7c0-1.6,0-3.2,0-4.7V16.7
		c0-0.2,0.1-0.4,0.2-0.6c0.1-0.2,0.3-0.3,0.6-0.4c0.3-0.1,0.6-0.2,1.1-0.3c0.4-0.1,1-0.1,1.7-0.1c0.6,0,1.2,0,1.6,0.1
		c0.4,0.1,0.8,0.1,1,0.3c0.2,0.1,0.4,0.3,0.5,0.4c0.1,0.2,0.1,0.4,0.1,0.6V54z"/>
	<path d="M270.8,41.2v14.6c0,0.2-0.1,0.4-0.2,0.6c-0.1,0.2-0.3,0.3-0.6,0.4c-0.3,0.1-0.7,0.2-1.2,0.3c-0.5,0.1-1.1,0.1-1.8,0.1
		c-0.7,0-1.4,0-1.8-0.1c-0.5-0.1-0.9-0.1-1.2-0.3c-0.3-0.1-0.5-0.2-0.6-0.4c-0.1-0.2-0.2-0.4-0.2-0.6V41.2l-10.1-22.6
		c-0.4-0.8-0.6-1.4-0.7-1.8c-0.1-0.4,0-0.8,0.2-1c0.2-0.2,0.6-0.4,1.2-0.4c0.6-0.1,1.4-0.1,2.5-0.1c0.9,0,1.6,0,2.1,0.1
		c0.5,0,0.9,0.1,1.2,0.2c0.3,0.1,0.5,0.3,0.7,0.5c0.1,0.2,0.3,0.4,0.4,0.7l4.1,10.2c0.4,1,0.8,2,1.2,3.1c0.4,1.1,0.8,2.2,1.2,3.4
		h0.1c0.4-1.2,0.7-2.3,1.1-3.4c0.4-1.1,0.8-2.1,1.1-3.1l4.1-10.1c0.1-0.3,0.2-0.6,0.4-0.8c0.1-0.2,0.4-0.4,0.6-0.5
		c0.3-0.1,0.7-0.2,1.2-0.3c0.5,0,1.2-0.1,2-0.1c1.1,0,1.9,0,2.5,0.1c0.6,0.1,1,0.2,1.2,0.4c0.2,0.2,0.3,0.6,0.2,1
		c-0.1,0.4-0.3,1.1-0.7,1.8L270.8,41.2z"/>
	<path d="M310.1,53.8c0.2,0.8,0.4,1.4,0.4,1.8c0.1,0.4,0,0.8-0.2,1c-0.2,0.2-0.6,0.4-1.1,0.4s-1.3,0.1-2.2,0.1c-1,0-1.7,0-2.3,0
		c-0.5,0-1-0.1-1.2-0.2c-0.3-0.1-0.5-0.2-0.6-0.4c-0.1-0.2-0.2-0.4-0.3-0.7l-2.5-8.4h-13.9l-2.3,8.1c-0.1,0.3-0.2,0.6-0.3,0.8
		c-0.1,0.2-0.3,0.4-0.6,0.5c-0.3,0.1-0.7,0.2-1.2,0.2c-0.5,0-1.2,0.1-2,0.1c-0.9,0-1.6,0-2.1-0.1c-0.5-0.1-0.8-0.2-1-0.5
		c-0.2-0.2-0.3-0.6-0.2-1c0.1-0.4,0.2-1,0.4-1.8l11.4-36.9c0.1-0.4,0.2-0.7,0.4-0.9c0.2-0.2,0.4-0.4,0.7-0.5
		c0.3-0.1,0.8-0.2,1.4-0.2c0.6,0,1.4,0,2.3,0c1.1,0,2,0,2.7,0c0.7,0,1.2,0.1,1.6,0.2c0.4,0.1,0.6,0.3,0.8,0.5c0.2,0.2,0.3,0.6,0.4,1
		L310.1,53.8z M293.1,23.3L293.1,23.3L287.9,41h10.5L293.1,23.3z"/>
	<path d="M344,54c0,0.5-0.1,0.9-0.2,1.3c-0.2,0.4-0.4,0.7-0.6,1c-0.3,0.3-0.6,0.4-0.9,0.6c-0.4,0.1-0.7,0.2-1.1,0.2H338
		c-0.7,0-1.2-0.1-1.7-0.2c-0.5-0.1-0.9-0.4-1.3-0.8c-0.4-0.4-0.8-0.9-1.2-1.6c-0.4-0.7-0.8-1.5-1.3-2.6l-9.2-19.4
		c-0.5-1.2-1.1-2.4-1.6-3.7c-0.6-1.3-1-2.6-1.5-3.9h-0.1c0.1,1.5,0.1,3.1,0.2,4.6c0,1.5,0.1,3.1,0.1,4.7v21.7c0,0.2-0.1,0.4-0.2,0.6
		c-0.1,0.2-0.3,0.3-0.5,0.4c-0.3,0.1-0.6,0.2-1,0.3c-0.4,0.1-1,0.1-1.7,0.1c-0.7,0-1.2,0-1.7-0.1c-0.4-0.1-0.8-0.2-1-0.3
		c-0.2-0.1-0.4-0.3-0.5-0.4c-0.1-0.2-0.1-0.4-0.1-0.6V18.4c0-1,0.3-1.8,0.8-2.3c0.5-0.5,1.2-0.8,1.9-0.8h4c0.7,0,1.3,0.1,1.8,0.2
		c0.5,0.1,0.9,0.4,1.3,0.7c0.4,0.3,0.8,0.8,1.1,1.3c0.3,0.6,0.7,1.3,1.1,2.1l7.2,15.2c0.4,0.9,0.8,1.8,1.2,2.7
		c0.4,0.9,0.8,1.8,1.2,2.7c0.4,0.9,0.8,1.8,1.1,2.6c0.4,0.9,0.7,1.7,1.1,2.6h0c-0.1-1.5-0.1-3.1-0.1-4.7c0-1.6,0-3.2,0-4.7V16.7
		c0-0.2,0.1-0.4,0.2-0.6c0.1-0.2,0.3-0.3,0.6-0.4c0.3-0.1,0.6-0.2,1.1-0.3c0.4-0.1,1-0.1,1.7-0.1c0.6,0,1.2,0,1.6,0.1
		c0.4,0.1,0.8,0.1,1,0.3c0.2,0.1,0.4,0.3,0.5,0.4c0.1,0.2,0.1,0.4,0.1,0.6V54z"/>
	<rect y="14.7" class="st2" width="378.8" height="78.3"/>
	<path d="M378.8,21.9c0,0.6,0,1.2-0.1,1.6c0,0.4-0.1,0.8-0.2,1.1c-0.1,0.3-0.2,0.5-0.3,0.6c-0.1,0.1-0.3,0.2-0.4,0.2
		c-0.2,0-0.6-0.2-1.2-0.6c-0.6-0.4-1.3-0.8-2.2-1.3c-0.9-0.4-2-0.9-3.3-1.3c-1.3-0.4-2.7-0.6-4.4-0.6c-1.8,0-3.4,0.3-4.9,1
		c-1.4,0.7-2.7,1.7-3.7,3c-1,1.3-1.8,2.8-2.4,4.6c-0.6,1.8-0.8,3.8-0.8,5.9c0,2.4,0.3,4.5,0.8,6.3c0.6,1.8,1.3,3.3,2.4,4.5
		c1,1.2,2.2,2.1,3.6,2.8c1.4,0.6,3,0.9,4.7,0.9c0.8,0,1.7-0.1,2.5-0.3c0.8-0.2,1.6-0.5,2.3-1v-9.6h-7c-0.3,0-0.6-0.2-0.8-0.7
		c-0.2-0.5-0.3-1.3-0.3-2.5c0-0.6,0-1.1,0.1-1.5s0.1-0.7,0.2-1c0.1-0.2,0.2-0.4,0.3-0.5c0.1-0.1,0.3-0.2,0.5-0.2h12.5
		c0.3,0,0.6,0.1,0.8,0.2c0.2,0.1,0.4,0.3,0.6,0.5c0.2,0.2,0.3,0.5,0.4,0.9c0.1,0.3,0.1,0.7,0.1,1.1v16.5c0,0.6-0.1,1.2-0.3,1.7
		c-0.2,0.5-0.6,0.9-1.2,1.1c-0.6,0.3-1.4,0.6-2.3,0.9c-0.9,0.3-1.9,0.6-2.8,0.8c-1,0.2-2,0.4-3,0.5c-1,0.1-2,0.2-3,0.2
		c-3,0-5.6-0.5-7.9-1.4c-2.3-1-4.3-2.3-5.9-4.1c-1.6-1.8-2.9-4-3.7-6.6c-0.9-2.6-1.3-5.6-1.3-8.8c0-3.4,0.5-6.5,1.4-9.2
		c0.9-2.7,2.2-5,3.9-6.9c1.7-1.9,3.7-3.3,6.1-4.4c2.4-1,5-1.5,7.9-1.5c1.6,0,3.1,0.1,4.4,0.4c1.3,0.2,2.5,0.5,3.4,0.9
		c1,0.4,1.8,0.7,2.4,1.1c0.6,0.4,1.1,0.8,1.4,1.1c0.3,0.3,0.4,0.7,0.6,1.3C378.8,20,378.8,20.8,378.8,21.9"/>
	<polygon class="st1" points="99.2,17.9 92.3,17.5 73.7,40.7 53.8,15.1 32.6,15.1 32.6,18 38.3,18 62.3,48.9 62.3,68.3 21.1,15.1 
		0,15.1 0,18 5.6,18 5.7,18 5.7,76 0,76 0,78.8 17,78.8 17,76 11.4,76 11.4,25.3 52.8,78.8 76.5,78.8 76.5,46.2 	"/>
	<rect x="0" y="14.7" class="st2" width="378.8" height="78.3"/>
	<path class="st0" d="M134.7,33.6c0-14.5-15.9-18.3-27.2-18.5h-0.3h-0.5H84.4V18h21.8c4,0.4,8.9,2.7,11.7,6.9
		c1.6,2.4,2.6,5.2,2.6,8.8c-0.1,10.2-9,15.7-16.3,15.4H90.7v0.6h0v29.2h19.8V76h-5.7V51.9C118.5,51.3,134.6,48.1,134.7,33.6"/>
	<rect y="14.7" class="st2" width="378.8" height="78.3"/>
</g>
</svg>
